# xmcd
#
# Track frame offsets:
#	183
#	16355
#	36120
#	63280
#	81600
#	116560
#	174768
#	190635
#	205495
#	244098
#	269255
#	301293
#
# Disc length: 4284 seconds
#
# Revision: 1
# Processed by: cddbd v1.5.2PL0 Copyright (c) Steve Scherf et al.
# Submitted via: audiograbber 1.83.01
#
DISCID=9d10ba0c
DTITLE=Gary Moore - Tonight´s The Blues Alive
DYEAR=1992
DGENRE=Blues
TTITLE0=The Stumble
TTITLE1=All Your Love
TTITLE2=Midnight Blues
TTITLE3=You Don´t Love Me
TTITLE4=Still Got The Blues
TTITLE5=Texas Strut
TTITLE6=Moving On
TTITLE7=Toon Tired
TTITLE8=Cold, Cold Feeling
TTITLE9=Further On Up The Road
TTITLE10=King Of The Blues
TTITLE11=Stop Messin´ AroundTrack 12
EXTD=
EXTT0=
EXTT1=
EXTT2=
EXTT3=
EXTT4=
EXTT5=
EXTT6=
EXTT7=
EXTT8=
EXTT9=
EXTT10=
EXTT11=
PLAYORDER=
